<svg aria-hidden="true" style="position: absolute; width: 0; height: 0; overflow: hidden;" version="1.1" xmlns="http://www.w3.org/2000/svg" xmlns:xlink="http://www.w3.org/1999/xlink">
<defs>
<symbol id="icon-menu-icon" viewBox="0 0 49 32">
<path stroke-linejoin="miter" stroke-linecap="butt" stroke-miterlimit="4" stroke-width="2.4615" d="M0 2.462h49.231M0 29.538h49.231M0 16h49.231"></path>
</symbol>
<symbol id="icon-LOGO" viewBox="0 0 145 32">
<path d="M0.643 27.29c-0.171 0-0.326-0.060-0.463-0.179-0.12-0.136-0.18-0.29-0.18-0.461v-16.638c0-0.188 0.060-0.341 0.18-0.461 0.137-0.119 0.291-0.179 0.463-0.179h2.778c0.412 0 0.712 0.188 0.9 0.563l4.527 8.063 4.527-8.063c0.189-0.375 0.489-0.563 0.9-0.563h2.752c0.189 0 0.343 0.060 0.463 0.179 0.137 0.119 0.206 0.273 0.206 0.461v16.638c0 0.188-0.069 0.341-0.206 0.461-0.12 0.12-0.274 0.179-0.463 0.179h-3.061c-0.189 0-0.351-0.060-0.489-0.179-0.12-0.119-0.18-0.273-0.18-0.461v-9.599l-2.881 5.35c-0.223 0.392-0.523 0.589-0.9 0.589h-1.337c-0.223 0-0.403-0.051-0.54-0.154s-0.257-0.247-0.36-0.435l-2.906-5.35v9.599c0 0.171-0.060 0.324-0.18 0.461-0.12 0.12-0.274 0.179-0.463 0.179h-3.086z"></path>
<path d="M30.044 27.29c-0.172 0-0.326-0.060-0.463-0.179-0.12-0.136-0.18-0.29-0.18-0.461v-16.638c0-0.188 0.060-0.341 0.18-0.461 0.137-0.119 0.291-0.179 0.463-0.179h12.011c0.189 0 0.343 0.060 0.463 0.179s0.18 0.273 0.18 0.461v2.406c0 0.171-0.060 0.324-0.18 0.461-0.12 0.119-0.274 0.179-0.463 0.179h-8.205v3.456h7.639c0.188 0 0.343 0.068 0.463 0.205 0.12 0.119 0.18 0.273 0.18 0.461v2.227c0 0.171-0.060 0.324-0.18 0.461-0.12 0.119-0.274 0.179-0.463 0.179h-7.639v3.558h8.41c0.189 0 0.343 0.060 0.463 0.179s0.18 0.273 0.18 0.461v2.406c0 0.171-0.060 0.324-0.18 0.461-0.12 0.12-0.274 0.179-0.463 0.179h-12.217z"></path>
<path d="M54.572 27.29c-0.172 0-0.326-0.060-0.463-0.179-0.12-0.136-0.18-0.29-0.18-0.461v-16.638c0-0.188 0.060-0.341 0.18-0.461 0.137-0.119 0.291-0.179 0.463-0.179h12.345c0.189 0 0.343 0.060 0.463 0.179s0.18 0.273 0.18 0.461v2.56c0 0.188-0.060 0.35-0.18 0.486-0.12 0.119-0.274 0.179-0.463 0.179h-8.359v3.020h3.575c2.058 0 3.678 0.486 4.861 1.459s1.775 2.304 1.775 3.993c0 1.058-0.257 2.014-0.772 2.867-0.514 0.836-1.269 1.502-2.263 1.997-0.994 0.478-2.195 0.717-3.601 0.717h-7.562zM61.722 23.962c0.703 0 1.252-0.222 1.646-0.666 0.411-0.444 0.617-0.981 0.617-1.613s-0.197-1.152-0.592-1.561c-0.394-0.409-0.952-0.614-1.672-0.614h-3.163v4.454h3.163z"></path>
<path d="M79.577 27.29c-0.171 0-0.326-0.060-0.463-0.179-0.12-0.136-0.18-0.29-0.18-0.461v-16.638c0-0.188 0.060-0.341 0.18-0.461 0.137-0.119 0.291-0.179 0.463-0.179h12.011c0.189 0 0.343 0.060 0.463 0.179s0.18 0.273 0.18 0.461v2.406c0 0.171-0.060 0.324-0.18 0.461-0.12 0.119-0.274 0.179-0.463 0.179h-8.204v3.456h7.639c0.189 0 0.343 0.068 0.463 0.205 0.12 0.119 0.18 0.273 0.18 0.461v2.227c0 0.171-0.060 0.324-0.18 0.461-0.12 0.119-0.274 0.179-0.463 0.179h-7.639v3.558h8.41c0.189 0 0.343 0.060 0.463 0.179s0.18 0.273 0.18 0.461v2.406c0 0.171-0.060 0.324-0.18 0.461-0.12 0.12-0.274 0.179-0.463 0.179h-12.217z"></path>
<path d="M115.525 27.29c-0.171 0-0.326-0.060-0.463-0.179-0.12-0.136-0.18-0.29-0.18-0.461v-13.183h-4.784v2.329c0 2.884-0.189 5.137-0.566 6.758-0.377 1.604-1.072 2.79-2.083 3.558-0.994 0.751-2.443 1.143-4.347 1.177-0.189 0-0.351-0.060-0.489-0.179-0.137-0.136-0.206-0.299-0.206-0.486v-2.688c0-0.358 0.214-0.58 0.643-0.666 0.926-0.154 1.586-0.904 1.98-2.253 0.394-1.365 0.592-3.302 0.592-5.811v-5.196c0-0.188 0.060-0.341 0.18-0.461 0.137-0.119 0.3-0.179 0.489-0.179h12.551c0.189 0 0.343 0.060 0.463 0.179 0.137 0.119 0.206 0.273 0.206 0.461v16.638c0 0.188-0.069 0.341-0.206 0.461-0.12 0.12-0.274 0.179-0.463 0.179h-3.318z"></path>
<path d="M131.823 27.29c-0.172 0-0.326-0.060-0.463-0.179-0.12-0.136-0.18-0.29-0.18-0.461v-16.638c0-0.188 0.060-0.341 0.18-0.461 0.137-0.119 0.292-0.179 0.463-0.179h3.318c0.189 0 0.343 0.060 0.463 0.179 0.137 0.119 0.206 0.273 0.206 0.461v5.503h2.701c2.229 0 3.944 0.495 5.144 1.485 1.2 0.973 1.8 2.415 1.8 4.326 0 1.809-0.609 3.259-1.826 4.351-1.2 1.075-2.906 1.613-5.118 1.613h-6.687zM138.407 23.732c0.72 0 1.277-0.222 1.672-0.666s0.592-1.024 0.592-1.741c0-0.751-0.197-1.314-0.592-1.689-0.394-0.393-0.952-0.589-1.672-0.589h-2.598v4.684h2.598z"></path>
<path d="M47.478 0.369c-0.262 0.014-0.454 0.043-0.578 0.087-0.116 0.043-0.196 0.127-0.24 0.25s-0.065 0.322-0.065 0.597v5.513c0 0.232 0.018 0.402 0.055 0.51 0.036 0.101 0.098 0.17 0.185 0.206 0.094 0.036 0.243 0.054 0.447 0.054h0.534c0.494 0 0.92-0.221 1.276-0.662 0.364-0.441 0.6-1.027 0.709-1.758h0.251c-0.022 0.246-0.033 0.564-0.033 0.955 0 0.695 0.025 1.266 0.076 1.715-0.494-0.022-1.327-0.033-2.497-0.033-1.585 0-2.77 0.011-3.555 0.033v-0.217c0.24-0.014 0.414-0.043 0.523-0.087 0.116-0.043 0.193-0.127 0.229-0.25 0.044-0.123 0.065-0.322 0.065-0.597v-5.383c0-0.275-0.022-0.474-0.065-0.597-0.036-0.123-0.113-0.206-0.229-0.25-0.109-0.043-0.283-0.072-0.523-0.087v-0.217c0.371 0.022 0.945 0.033 1.723 0.033 0.742 0 1.312-0.011 1.712-0.033v0.217z"></path>
<path d="M63.934 0c0.771 0 1.443 0.156 2.017 0.467 0.582 0.311 1.032 0.763 1.352 1.357 0.32 0.586 0.48 1.288 0.48 2.106 0 0.796-0.163 1.501-0.491 2.116s-0.785 1.093-1.374 1.433c-0.582 0.34-1.247 0.51-1.996 0.51-0.771 0-1.447-0.156-2.028-0.467-0.574-0.311-1.021-0.76-1.341-1.346-0.32-0.593-0.48-1.299-0.48-2.116 0-0.796 0.163-1.501 0.491-2.116s0.782-1.093 1.363-1.433c0.589-0.34 1.258-0.51 2.007-0.51zM63.891 0.195c-0.4 0-0.752 0.163-1.058 0.488-0.305 0.318-0.542 0.767-0.709 1.346-0.16 0.579-0.24 1.241-0.24 1.986 0 0.752 0.091 1.415 0.273 1.986 0.189 0.572 0.44 1.013 0.752 1.324 0.32 0.311 0.673 0.467 1.058 0.467 0.4 0 0.752-0.159 1.058-0.478 0.305-0.326 0.538-0.778 0.698-1.357 0.167-0.579 0.251-1.241 0.251-1.986 0-0.752-0.095-1.415-0.284-1.986-0.182-0.572-0.433-1.013-0.753-1.324-0.313-0.311-0.662-0.467-1.047-0.467z"></path>
<path d="M83.873 0.152c-0.051 0.615-0.076 1.165-0.076 1.65 0 0.34 0.011 0.615 0.033 0.825h-0.251c-0.145-0.818-0.364-1.393-0.654-1.726s-0.698-0.499-1.221-0.499h-0.36c-0.225 0-0.389 0.018-0.491 0.054s-0.171 0.109-0.207 0.217c-0.036 0.101-0.055 0.268-0.055 0.499v2.735h0.382c0.385 0 0.676-0.141 0.872-0.423 0.204-0.282 0.345-0.619 0.425-1.009h0.251c-0.022 0.304-0.033 0.644-0.033 1.020v0.521c0 0.369 0.022 0.883 0.065 1.541h-0.251c-0.153-0.955-0.596-1.433-1.33-1.433h-0.382v2.496c0 0.289 0.029 0.503 0.087 0.64 0.065 0.13 0.174 0.217 0.327 0.26 0.16 0.043 0.411 0.069 0.752 0.076v0.239c-0.894-0.022-1.559-0.033-1.996-0.033-0.364 0-0.822 0.007-1.374 0.022l-0.349 0.011v-0.217c0.24-0.014 0.414-0.043 0.523-0.087 0.116-0.043 0.193-0.127 0.229-0.25 0.044-0.123 0.065-0.322 0.065-0.597v-5.383c0-0.275-0.022-0.474-0.065-0.597-0.036-0.123-0.113-0.206-0.229-0.25-0.109-0.043-0.284-0.072-0.523-0.087v-0.217c0.785 0.022 1.97 0.033 3.555 0.033 1.069 0 1.829-0.011 2.279-0.033z"></path>
<path d="M100.006 0.152c-0.051 0.687-0.076 1.302-0.076 1.845 0 0.34 0.011 0.615 0.033 0.825h-0.251c-0.174-0.89-0.414-1.516-0.72-1.878-0.298-0.362-0.709-0.543-1.232-0.543h-0.251v6.197c0 0.304 0.029 0.525 0.087 0.662 0.065 0.137 0.174 0.232 0.327 0.282 0.16 0.043 0.411 0.069 0.752 0.076v0.217c-0.916-0.022-1.607-0.033-2.072-0.033-0.458 0-1.123 0.011-1.996 0.033v-0.217c0.342-0.007 0.589-0.033 0.742-0.076 0.16-0.051 0.269-0.145 0.327-0.282 0.065-0.137 0.098-0.358 0.098-0.662v-6.197h-0.24c-0.349 0-0.647 0.076-0.894 0.228-0.24 0.152-0.447 0.405-0.622 0.76-0.175 0.347-0.323 0.825-0.447 1.433h-0.251c0.022-0.21 0.033-0.485 0.033-0.825 0-0.543-0.025-1.158-0.076-1.845 0.662 0.022 1.785 0.033 3.37 0.033s2.704-0.011 3.359-0.033z"></path>
<path d="M9.928 0.054h32.921v1.229h-32.921v-1.229z"></path>
<path d="M4.99 3.126h37.859v1.229h-37.859v-1.229z"></path>
<path d="M0.463 6.403h42.386v1.229h-42.386v-1.229z"></path>
<path d="M135.028 0.054h-32.921v1.229h32.921v-1.229z"></path>
<path d="M144.493 28.314h-144.030v1.229h144.030v-1.229z"></path>
<path d="M139.966 30.771h-135.8v1.229h135.8v-1.229z"></path>
<path d="M139.966 3.126h-37.859v1.229h37.859v-1.229z"></path>
<path d="M144.493 6.403h-42.386v1.229h42.386v-1.229z"></path>
</symbol>
<symbol id="icon-bag" viewBox="0 0 27 32">
<path d="M3.213 13.716v0zM1.613 28.116v0zM25.791 28.116v0zM24.191 13.716v0zM2.418 13.627l-1.6 14.4 1.59 0.177 1.6-14.4-1.59-0.177zM3.657 31.2h20.089v-1.6h-20.089v1.6zM26.586 28.027l-1.6-14.4-1.59 0.177 1.6 14.4 1.59-0.177zM22.146 11.086h-16.889v1.6h16.889v-1.6zM24.986 13.627c-0.161-1.447-1.384-2.542-2.84-2.542v1.6c0.64 0 1.179 0.482 1.249 1.118l1.59-0.177zM23.746 31.2c1.703 0 3.028-1.48 2.84-3.173l-1.59 0.177c0.083 0.745-0.5 1.396-1.249 1.396v1.6zM0.818 28.027c-0.188 1.692 1.137 3.173 2.84 3.173v-1.6c-0.749 0-1.332-0.651-1.249-1.396l-1.59-0.177zM4.008 13.804c0.071-0.637 0.609-1.118 1.249-1.118v-1.6c-1.456 0-2.679 1.095-2.84 2.542l1.59 0.177zM8.33 8.8v-1.029h-1.6v1.029h1.6zM19.073 7.771v1.029h1.6v-1.029h-1.6zM13.702 2.4c2.967 0 5.371 2.405 5.371 5.371h1.6c0-3.85-3.121-6.971-6.971-6.971v1.6zM8.33 7.771c0-2.967 2.405-5.371 5.371-5.371v-1.6c-3.85 0-6.971 3.121-6.971 6.971h1.6z"></path>
</symbol>
<symbol id="icon-profile-icon" viewBox="0 0 24 32">
<path stroke-linejoin="miter" stroke-linecap="square" stroke-miterlimit="4" stroke-width="1.6" d="M18.068 7.771c0 3.409-2.764 6.171-6.175 6.171s-6.175-2.763-6.175-6.171c0-3.409 2.765-6.171 6.175-6.171s6.175 2.763 6.175 6.171z"></path>
<path stroke-linejoin="miter" stroke-linecap="square" stroke-miterlimit="4" stroke-width="1.6" d="M22.185 30.4h-20.585c0-1.462 0-2.852 0-4.111 0-3.411 2.765-6.174 6.175-6.174h8.234c3.411 0 6.175 2.764 6.175 6.174 0 1.259 0 2.65 0 4.111z"></path>
</symbol>
<symbol id="icon-wishlist-icon" viewBox="0 0 37 32">
<path d="M18.386 30.316l-0.596 0.596c0.329 0.329 0.862 0.329 1.191 0l-0.595-0.596zM4.155 16.085v0zM16.085 4.155v0zM18.386 6.456l-0.596 0.595c0.329 0.329 0.862 0.329 1.191 0l-0.595-0.595zM20.687 4.155v0zM18.981 29.72l-14.231-14.231-1.191 1.191 14.231 14.231 1.191-1.191zM32.022 15.489l-14.231 14.231 1.191 1.191 14.231-14.231-1.191-1.191zM15.489 4.75l2.301 2.301 1.191-1.191-2.301-2.301-1.191 1.191zM18.981 7.052l2.301-2.301-1.191-1.191-2.301 2.301 1.191 1.191zM26.652 0.842c-2.461 0-4.821 0.977-6.561 2.717l1.191 1.191c1.424-1.424 3.356-2.224 5.37-2.224v-1.684zM34.246 10.12c0 2.014-0.8 3.945-2.224 5.369l1.191 1.191c1.74-1.74 2.717-4.1 2.717-6.56h-1.684zM35.93 10.12c0-5.124-4.154-9.278-9.278-9.278v1.684c4.194 0 7.593 3.4 7.593 7.594h1.684zM10.12 2.526c2.014 0 3.945 0.8 5.369 2.224l1.191-1.191c-1.74-1.74-4.1-2.717-6.56-2.717v1.684zM2.526 10.12c0-4.194 3.4-7.594 7.594-7.594v-1.684c-5.124 0-9.278 4.154-9.278 9.278h1.684zM4.75 15.489c-1.424-1.424-2.224-3.355-2.224-5.369h-1.684c0 2.461 0.977 4.82 2.717 6.56l1.191-1.191z"></path>
</symbol>
</defs>
</svg>
